<svg width="96" height="96" viewBox="0 0 96 96" fill="none" xmlns="http://www.w3.org/2000/svg">
<g opacity="0.4" filter="url(#filter0_f_228_4006)">
<circle cx="48" cy="48" r="33" fill="#3DD9B3"/>
</g>
<circle cx="48" cy="43" r="33" fill="#3DD9B3"/>
<path d="M60.2007 35.2273C59.654 34.934 58.5073 34.6273 56.9473 35.7207L54.9873 37.1073C54.8407 32.9607 53.0407 31.334 48.6673 31.334H40.6673C36.1073 31.334 34.334 33.1073 34.334 37.6673V48.334C34.334 51.4006 36.0007 54.6673 40.6673 54.6673H48.6673C53.0407 54.6673 54.8407 53.0406 54.9873 48.894L56.9473 50.2806C57.774 50.8673 58.494 51.054 59.0673 51.054C59.5607 51.054 59.9473 50.9073 60.2007 50.774C60.7473 50.494 61.6673 49.734 61.6673 47.8273V38.174C61.6673 36.2673 60.7473 35.5073 60.2007 35.2273ZM46.6673 42.174C45.294 42.174 44.1607 41.054 44.1607 39.6673C44.1607 38.2807 45.294 37.1607 46.6673 37.1607C48.0407 37.1607 49.174 38.2807 49.174 39.6673C49.174 41.054 48.0407 42.174 46.6673 42.174Z" fill="white"/>
<defs>
<filter id="filter0_f_228_4006" x="0.875" y="0.875" width="94.25" height="94.25" filterUnits="userSpaceOnUse" color-interpolation-filters="sRGB">
<feFlood flood-opacity="0" result="BackgroundImageFix"/>
<feBlend mode="normal" in="SourceGraphic" in2="BackgroundImageFix" result="shape"/>
<feGaussianBlur stdDeviation="7.0625" result="effect1_foregroundBlur_228_4006"/>
</filter>
</defs>
</svg>
