<svg width="96" height="96" viewBox="0 0 96 96" fill="none" xmlns="http://www.w3.org/2000/svg">
<g opacity="0.4" filter="url(#filter0_f_228_4096)">
<circle cx="48" cy="48" r="33" fill="#FF7474"/>
</g>
<circle cx="48" cy="43" r="33" fill="#FF7474"/>
<path d="M57.9146 32.3806C58.091 32.6578 57.7888 32.9808 57.4684 32.908V32.908C56.8417 32.7213 56.1484 32.628 55.4417 32.628H51.1003C50.8536 32.628 50.6212 32.5119 50.473 32.3147L48.9751 30.3213V30.3213C48.7873 30.0552 48.9648 29.668 49.2905 29.668H52.9617C55.0431 29.668 56.8765 30.7489 57.9146 32.3806Z" fill="white"/>
<path d="M58.8546 35.7213C58.2813 35.308 57.628 35.0013 56.9213 34.828C56.4413 34.6946 55.948 34.628 55.4413 34.628H50.4813C49.708 34.628 49.6546 34.5613 49.2413 34.0146L47.3746 31.5346C46.508 30.3746 45.828 29.668 43.6546 29.668H40.5613C37.308 29.668 34.668 32.308 34.668 35.5613V50.4413C34.668 53.6946 37.308 56.3346 40.5613 56.3346H55.4413C58.6946 56.3346 61.3346 53.6946 61.3346 50.4413V40.5213C61.3346 38.5346 60.3613 36.788 58.8546 35.7213ZM51.188 48.788H44.8013C44.2813 48.788 43.8813 48.3746 43.8813 47.8546C43.8813 47.348 44.2813 46.9213 44.8013 46.9213H51.188C51.708 46.9213 52.1213 47.348 52.1213 47.8546C52.1213 48.3746 51.708 48.788 51.188 48.788Z" fill="white"/>
<defs>
<filter id="filter0_f_228_4096" x="0.875" y="0.875" width="94.25" height="94.25" filterUnits="userSpaceOnUse" color-interpolation-filters="sRGB">
<feFlood flood-opacity="0" result="BackgroundImageFix"/>
<feBlend mode="normal" in="SourceGraphic" in2="BackgroundImageFix" result="shape"/>
<feGaussianBlur stdDeviation="7.0625" result="effect1_foregroundBlur_228_4096"/>
</filter>
</defs>
</svg>
