<?xml version="1.0" encoding="UTF-8"?>
<svg version="1.1" xmlns="http://www.w3.org/2000/svg" width="1536" height="1024">
<path d="M0 0 C2.41303232 2.41673329 4.75665034 4.85933992 7.02734375 7.41015625 C8.82910153 9.18701416 8.82910153 9.18701416 10.93359375 9.0703125 C13.94220851 7.51197518 15.82852628 5.29309333 18.125 2.8125 C28.31324623 -7.78949947 41.29956093 -13.82620068 56 -15 C60.05661506 -14.9541913 63.98601876 -14.57182414 68 -14 C69.13695312 -13.86464844 69.13695312 -13.86464844 70.296875 -13.7265625 C82.39397712 -11.73981215 94.11585089 -3.80292198 101.1875 6.046875 C111.07930834 21.53919248 114.22711911 37.0568319 111.4375 55.25 C108.33248257 67.95634791 100.88841515 77.80570787 91.140625 86.12109375 C85.20031023 91.33512916 79.85150649 97.08933513 74.69921875 103.0703125 C71.9607249 106.18023425 69.16994173 109.32353205 66 112 C65.34 112 64.68 112 64 112 C64 112.66 64 113.32 64 114 C62.37556005 115.72924252 60.71209648 117.35973974 59 119 C57.58059052 120.41391853 56.16418782 121.83085881 54.75 123.25 C26.9375 151.0625 26.9375 151.0625 25.44555664 152.55224609 C24.06138182 153.93852488 22.68480349 155.33237615 21.30859375 156.7265625 C17.89000346 160.09309304 15.06085494 162.86559642 10.125 163.1875 C0.39980303 159.49192515 -7.70011269 148.42741611 -14.94921875 141.1484375 C-16.29322167 139.80256541 -17.63744858 138.45691696 -18.98188782 137.11148071 C-22.50186834 133.58770454 -26.01883695 130.06093746 -29.53515625 126.5335083 C-33.11081431 122.94760916 -36.68931053 119.36454483 -40.26757812 115.78125 C-46.04550413 109.99456408 -51.82172672 104.20618459 -57.59562683 98.41548157 C-63.99433223 91.9672977 -63.99433223 91.9672977 -70.5234375 85.65234375 C-83.42776724 73.29317374 -91.79968965 61.83950965 -92.40039062 43.3996582 C-92.59536681 28.82133993 -89.63091979 17.92170427 -81 6 C-80.236875 4.9275 -79.47375 3.855 -78.6875 2.75 C-70.56223147 -5.56422827 -59.50881172 -11.98652996 -48 -14 C-47.36191406 -14.1340625 -46.72382813 -14.268125 -46.06640625 -14.40625 C-29.10529327 -17.2277584 -12.80365681 -10.82944026 0 0 Z " fill="#34AF35" transform="translate(440,363)"/>
<path d="M0 0 C0.71168839 0.71755463 1.42337677 1.43510925 2.15663147 2.17440796 C2.97445602 2.98930695 3.79228058 3.80420593 4.6348877 4.64379883 C5.50065933 5.52707855 6.36643097 6.41035828 7.25843811 7.32040405 C8.1655806 8.23083466 9.07272308 9.14126526 10.00735474 10.07928467 C11.92554331 12.00509685 13.83710789 13.93715854 15.74354553 15.87460327 C18.16680647 18.33724132 20.60053105 20.78917197 23.03868771 23.23705482 C25.38627345 25.59470748 27.72874546 27.95739255 30.07093811 30.32040405 C30.93468552 31.19153839 31.79843292 32.06267273 32.68835449 32.96020508 C37.0315422 37.37129463 41.2222634 41.85438725 45.26205444 46.54455566 C46.98572423 48.50904687 48.80744151 50.31062451 50.73890686 52.07040405 C51.41566467 52.6943103 52.09242249 53.31821655 52.78968811 53.96102905 C53.47160217 54.58235718 54.15351624 55.2036853 54.85609436 55.84384155 C62.51677852 62.83153103 62.51677852 62.83153103 65.48109436 66.4649353 C67.41260159 68.82901967 69.27118335 70.71381186 71.60609436 72.65634155 C72.29445374 73.25188843 72.98281311 73.8474353 73.69203186 74.46102905 C74.96240624 75.55617938 76.23763675 76.64575283 77.52015686 77.72665405 C87.01740609 86.35657459 93.15278836 99.47396895 93.83802795 112.20565796 C94.36241546 129.93834581 91.36379875 144.78246611 78.73109436 158.21884155 C66.40017155 169.8635217 53.23906251 174.73646904 36.51234436 174.46884155 C21.07881679 173.44844304 10.46991631 166.52212892 -0.71617126 156.5821228 C-3.1911481 154.40912428 -5.73013739 152.31674585 -8.26890564 150.21884155 C-8.71878845 150.70352905 -9.16867126 151.18821655 -9.63218689 151.68759155 C-21.97832453 164.55330613 -37.00181031 174.13321923 -55.20640564 174.59384155 C-68.88204512 174.22181654 -83.73850338 169.44920171 -93.83140564 159.7852478 C-106.2314726 146.27321832 -110.97901925 131.02613436 -110.57359314 113.0196228 C-109.64518 93.64187589 -97.5841614 82.04258824 -84.53062439 69.14437866 C-82.3685259 67.0062431 -80.2204469 64.85469516 -78.07359314 62.70126343 C-76.70459726 61.33783371 -75.3348342 59.97517378 -73.96421814 58.6133728 C-73.00021591 57.64800346 -73.00021591 57.64800346 -72.01673889 56.66313171 C-67.50005046 52.21884155 -67.50005046 52.21884155 -65.26890564 52.21884155 C-65.26890564 51.55884155 -65.26890564 50.89884155 -65.26890564 50.21884155 C-63.86180386 49.05197666 -62.45089092 47.8894673 -61.02337646 46.74766541 C-59.19803719 45.15708768 -57.69538717 43.48247592 -56.13487244 41.63265991 C-51.95152834 36.79007462 -47.48787159 32.2578893 -42.97593689 27.7227478 C-42.10748642 26.84859726 -41.23903595 25.97444672 -40.3442688 25.07380676 C-38.5211414 23.24129041 -36.69660067 21.41017917 -34.87071228 19.58041382 C-32.07239668 16.77230105 -29.28491804 13.95370441 -26.49742126 11.13485718 C-24.72008458 9.35099811 -22.94211213 7.56777221 -21.16343689 5.7852478 C-19.91491692 4.51820763 -19.91491692 4.51820763 -18.64117432 3.22557068 C-17.8632402 2.45063766 -17.08530609 1.67570465 -16.28379822 0.87728882 C-15.26289848 -0.14907936 -15.26289848 -0.14907936 -14.22137451 -1.19618225 C-9.35695868 -5.14502026 -4.74824666 -3.72751493 0 0 Z " fill="#34AF35" transform="translate(458.26890563964844,550.7811584472656)"/>
<path d="M0 0 C6.27330934 5.66153807 12.1590097 11.72089928 18.076828 17.74858093 C19.99921148 19.68532279 21.92675365 21.61690006 23.85411072 23.5486908 C27.86949569 27.57869769 31.87202811 31.62108306 35.86540222 35.67289734 C41.49688915 41.38675828 47.1514343 47.07736972 52.81069422 52.76370573 C57.2162345 57.19186415 61.61599978 61.62576031 66.014328 66.06108093 C66.48451135 66.53516986 66.95469469 67.00925879 67.43912601 67.49771404 C70.54971895 70.63520709 73.65487647 73.77800558 76.75749207 76.92338562 C77.54182114 77.71511673 78.32615021 78.50684784 79.13424683 79.3225708 C79.84879532 80.04861008 80.56334381 80.77464935 81.29954529 81.52268982 C81.92108616 82.15240063 82.54262703 82.78211143 83.18300247 83.43090439 C85.65657296 86.12976295 86.70724376 87.77298259 87.123703 91.45170593 C86.35440931 99.01642721 80.32056144 103.85545138 75.16618347 108.98051453 C74.40803345 109.74216919 73.64988342 110.50382385 72.86875916 111.28855896 C70.37279558 113.79329348 67.86962567 116.29067918 65.3658905 118.78764343 C63.62732661 120.52755475 61.88905968 122.26776285 60.15107727 124.008255 C56.51449919 127.64777759 52.87433775 131.28366761 49.23161316 134.91703796 C44.55266035 139.58456277 39.882788 144.26105359 35.21552849 148.94026756 C31.6316277 152.53137615 28.04300093 156.11773136 24.45289993 159.70264053 C22.72816585 161.42603688 21.00492604 163.15092995 19.28318405 164.87731552 C16.88439247 167.28115819 14.47933243 169.67854341 12.07243347 172.07426453 C11.3565506 172.79419586 10.64066772 173.5141272 9.90309143 174.25587463 C9.24981873 174.90350769 8.59654602 175.55114075 7.92347717 176.21839905 C7.35531721 176.78580496 6.78715725 177.35321087 6.20178032 177.9378109 C4.748703 179.13920593 4.748703 179.13920593 2.748703 179.13920593 C2.501203 179.73733093 2.253703 180.33545593 1.998703 180.95170593 C-1.7578948 187.52575208 -11.29417501 191.07783646 -18.251297 193.13920593 C-36.28191615 196.96256614 -50.51475245 194.52232111 -66.251297 185.13920593 C-68.95118264 183.26564893 -70.97579098 181.52848725 -73.251297 179.13920593 C-73.251297 178.47920593 -73.251297 177.81920593 -73.251297 177.13920593 C-74.241297 176.80920593 -75.231297 176.47920593 -76.251297 176.13920593 C-77.87893453 173.66236621 -79.33339866 171.23166693 -80.751297 168.63920593 C-81.3371759 167.61440125 -81.3371759 167.61440125 -81.93489075 166.56889343 C-86.86918187 157.69713768 -88.79637366 149.99101938 -88.688797 139.82670593 C-88.67977356 138.80850769 -88.67075012 137.79030945 -88.66145325 136.74125671 C-88.31279562 121.61096836 -81.84093075 108.0402995 -71.251297 97.13920593 C-70.591297 97.13920593 -69.931297 97.13920593 -69.251297 97.13920593 C-68.756297 95.65420593 -68.756297 95.65420593 -68.251297 94.13920593 C-67.591297 94.13920593 -66.931297 94.13920593 -66.251297 94.13920593 C-68.27737371 90.48971129 -70.4904283 87.76463793 -73.438797 84.82670593 C-77.39615181 80.52017275 -80.11290482 76.15091408 -82.688797 70.95170593 C-83.18319275 69.95433411 -83.18319275 69.95433411 -83.68757629 68.93681335 C-89.88672978 55.90223913 -90.82565884 39.31427992 -86.313797 25.51420593 C-79.16337665 8.883453 -67.55967295 -1.38957107 -51.251297 -8.86079407 C-35.05915149 -15.14222982 -13.1636302 -10.88030811 0 0 Z " fill="#34AF35" transform="translate(352.2512969970703,444.8607940673828)"/>
<path d="M0 0 C11.22837547 9.95001279 17.40050766 23.0785497 19.0246582 37.91357422 C19.97263673 56.46974954 12.81679282 71.20316079 1.1496582 85.28857422 C-0.16321834 86.64205519 -1.48958875 87.98323645 -2.8503418 89.28857422 C-1.42857837 92.51985473 0.31749288 94.64767187 2.7746582 97.16357422 C14.4085081 110.04769214 19.41373627 125.00026377 19.1496582 142.28857422 C17.6695198 155.71041173 12.13751735 167.2775436 3.1496582 177.28857422 C2.6752832 177.81837891 2.2009082 178.34818359 1.7121582 178.89404297 C-7.31596126 187.66354443 -20.53417355 192.5177431 -32.8503418 193.28857422 C-34.1497168 193.39169922 -35.4490918 193.49482422 -36.7878418 193.60107422 C-50.72698083 193.10114729 -62.88906529 187.95209518 -72.8503418 178.28857422 C-73.4072168 177.77681641 -73.9640918 177.26505859 -74.5378418 176.73779297 C-75.8503418 175.28857422 -75.8503418 175.28857422 -75.8503418 173.28857422 C-76.44274658 173.02214111 -77.03515137 172.75570801 -77.64550781 172.48120117 C-79.89554704 171.26412204 -81.34365791 170.02557794 -83.12768555 168.20654297 C-84.02197266 167.30258789 -84.02197266 167.30258789 -84.93432617 166.38037109 C-85.85181641 165.43774414 -85.85181641 165.43774414 -86.7878418 164.47607422 C-87.39563477 163.85925781 -88.00342773 163.24244141 -88.62963867 162.60693359 C-89.81957488 161.3990264 -91.00636474 160.18801006 -92.18969727 158.97363281 C-93.69894731 157.44219444 -95.24070675 155.95311472 -96.79174805 154.46435547 C-98.8503418 152.28857422 -98.8503418 152.28857422 -98.8503418 150.28857422 C-99.5103418 150.28857422 -100.1703418 150.28857422 -100.8503418 150.28857422 C-103.34397939 148.02163095 -105.56600757 145.61181132 -107.79174805 143.08154297 C-112.80966984 137.38139925 -118.03324035 132.28501882 -123.76049805 127.31982422 C-124.45014648 126.64951172 -125.13979492 125.97919922 -125.8503418 125.28857422 C-125.8503418 124.62857422 -125.8503418 123.96857422 -125.8503418 123.28857422 C-126.40463867 123.07330078 -126.95893555 122.85802734 -127.5300293 122.63623047 C-130.6064766 120.84940502 -132.67023923 118.37961296 -134.9753418 115.72607422 C-138.5456706 111.71141637 -142.18165303 107.96693545 -146.2253418 104.41357422 C-156.07746845 95.65961455 -156.07746845 95.65961455 -156.5378418 89.85107422 C-156.15368009 83.65257322 -152.46530286 80.62437822 -148.05737305 76.68701172 C-146.75208543 75.55127692 -145.44048418 74.42277127 -144.1237793 73.30029297 C-138.09419725 67.96483807 -132.37784485 62.17037004 -127.1628418 56.03857422 C-125.03070016 53.53662076 -122.85185104 51.35843813 -120.33129883 49.25146484 C-115.40650452 44.99286775 -110.89266203 40.35176275 -106.35781479 35.68782043 C-103.72030323 32.98031794 -101.06495957 30.29035066 -98.4128418 27.59716797 C-95.06605506 24.19667553 -91.72458342 20.79144616 -88.40209961 17.3671875 C-85.69175277 14.57476951 -82.96380148 11.80060835 -80.22403336 9.0370636 C-79.19638703 7.9941989 -78.17497763 6.94514257 -77.16064072 5.889328 C-56.10045689 -16.00661369 -24.18667461 -19.99813115 0 0 Z " fill="#34AF35" transform="translate(617.850341796875,446.71142578125)"/>
<path d="M0 0 C0.71143158 -0.00328308 1.42286316 -0.00656616 2.15585327 -0.00994873 C30.32824816 -0.05200123 30.32824816 -0.05200123 39.875 6.3125 C40.21557617 9.01806641 40.21557617 9.01806641 40.16796875 12.4140625 C40.15830078 13.62578125 40.14863281 14.8375 40.13867188 16.0859375 C40.11353516 17.35695313 40.08839844 18.62796875 40.0625 19.9375 C40.04219727 21.855625 40.04219727 21.855625 40.02148438 23.8125 C39.98603196 26.97958282 39.93661441 30.14583541 39.875 33.3125 C38.885 33.8075 38.885 33.8075 37.875 34.3125 C35.88420844 33.46864208 33.9311931 32.53504329 32 31.5625 C17.01779031 24.45872401 0.83389811 22.24851701 -15.28515625 26.94140625 C-19.23375301 28.51544824 -22.79261474 30.89312573 -26.328125 33.2265625 C-28.125 34.3125 -28.125 34.3125 -31.125 35.3125 C-31.125 35.9725 -31.125 36.6325 -31.125 37.3125 C-31.785 37.3125 -32.445 37.3125 -33.125 37.3125 C-33.393125 37.85519531 -33.66125 38.39789063 -33.9375 38.95703125 C-34.7921764 40.65232687 -35.67007097 42.33598924 -36.5625 44.01171875 C-37.078125 44.99785156 -37.59375 45.98398437 -38.125 47 C-38.8984375 48.45986328 -38.8984375 48.45986328 -39.6875 49.94921875 C-42.71835083 57.04042138 -43.49155392 64.02986175 -43.4375 71.6875 C-43.43258545 72.51822021 -43.4276709 73.34894043 -43.42260742 74.20483398 C-43.30065629 80.61446063 -42.52815875 86.32398344 -40.125 92.3125 C-39.7846875 93.17101562 -39.444375 94.02953125 -39.09375 94.9140625 C-34.15188023 105.96648745 -26.1866511 111.83074717 -15.125 116.3125 C-8.52437528 118.7771834 -2.05729128 118.69614681 4.9375 118.6875 C6.74263062 118.6872583 6.74263062 118.6872583 8.58422852 118.68701172 C17.89590149 118.56739723 26.60487715 117.80258757 34.91015625 113.1796875 C37.33503166 112.10946416 39.24970349 112.25264421 41.875 112.3125 C41.96196177 116.24986123 42.01537835 120.18697628 42.0625 124.125 C42.08763672 125.24455078 42.11277344 126.36410156 42.13867188 127.51757812 C42.14833984 128.59072266 42.15800781 129.66386719 42.16796875 130.76953125 C42.1836792 131.75928955 42.19938965 132.74904785 42.21557617 133.76879883 C41.875 136.3125 41.875 136.3125 40.54882812 138.10180664 C37.95816024 139.97565758 35.30258751 140.32458549 32.1875 140.9375 C31.00800781 141.17726563 29.82851563 141.41703125 28.61328125 141.6640625 C2.57033106 146.18143944 -25.87428758 145.7266907 -48.19140625 130.17578125 C-54.14607358 125.53357121 -58.81927972 120.49233544 -63.125 114.3125 C-63.82625 113.405 -64.5275 112.4975 -65.25 111.5625 C-75.87656636 93.14311831 -77.16272093 69.10068105 -72.2265625 48.6640625 C-66.76858789 32.05788444 -55.8119676 17.18671952 -40.17138672 8.9909668 C-26.71107473 2.26704387 -15.03346825 0.05629788 0 0 Z " fill="#39B039" transform="translate(765.125,447.6875)"/>
<path d="M0 0 C0.8758374 0.00563965 1.7516748 0.0112793 2.65405273 0.01708984 C18.35920397 0.31015595 31.95199453 6.19203383 43.1875 17.3125 C55.01742468 32.63247909 56.33599007 47.5055637 55.1875 66.3125 C53.14655372 79.03916504 45.12219044 89.70921174 35.0546875 97.40625 C24.01062505 104.74889642 13.33141858 106.66219691 0.3125 106.625 C-1.36779297 106.64916992 -1.36779297 106.64916992 -3.08203125 106.67382812 C-16.87116917 106.68187313 -30.68535786 102.02202803 -40.8125 92.3125 C-47.8125 83.65916667 -47.8125 83.65916667 -47.8125 80.3125 C-48.4725 80.3125 -49.1325 80.3125 -49.8125 80.3125 C-50.46506456 78.60672658 -51.10923041 76.89773911 -51.75 75.1875 C-52.28947266 73.76050781 -52.28947266 73.76050781 -52.83984375 72.3046875 C-57.00362491 59.49562578 -56.33237412 42.59772467 -50.93359375 30.3125 C-50 28.5625 -50 28.5625 -47.8125 25.3125 C-47.40386719 24.69117188 -46.99523437 24.06984375 -46.57421875 23.4296875 C-38.14621288 11.32184808 -26.64661136 3.6898336 -12.2019043 0.68969727 C-8.13312799 0.04739019 -4.1126745 -0.02789875 0 0 Z M-22.8125 35.3125 C-24.20927719 38.28512838 -24.8125 40.00824078 -24.8125 43.3125 C-25.4725 43.3125 -26.1325 43.3125 -26.8125 43.3125 C-29.78872515 53.60927894 -27.22163598 62.83246321 -22.5 72.0625 C-18.44584406 78.97982838 -12.41854837 83.04865253 -4.8125 85.3125 C2.84867589 86.64043715 8.30160779 84.95487963 14.875 80.94921875 C22.22890536 75.74434316 26.17859433 65.90774639 28.1875 57.3125 C29.66102398 47.59044504 25.83869259 38.97449103 20.5625 30.9375 C16.16271172 25.55873069 10.19572699 22.08846595 3.3828125 20.76953125 C-8.08688546 20.1684281 -16.42574839 26.17067907 -22.8125 35.3125 Z " fill="#39B039" transform="translate(928.8125,484.6875)"/>
<path d="M0 0 C2.36883206 2.03435481 4.22554237 4.18139082 6.01953125 6.734375 C7.00953125 7.600625 7.00953125 7.600625 8.01953125 8.484375 C17.39909332 19.03638233 17.11473128 36.33998435 17.15234375 49.6171875 C17.01953125 51.734375 17.01953125 51.734375 16.01953125 52.734375 C13.90271808 52.8285924 11.78272367 52.85180261 9.66381836 52.84790039 C9.00042953 52.84804642 8.33704071 52.84819244 7.65354919 52.8483429 C5.45129169 52.84764381 3.2491178 52.83985165 1.046875 52.83203125 C-0.47627211 52.83016706 -1.99941982 52.82874316 -3.52256775 52.82774353 C-7.53884526 52.82391846 -11.55508683 52.81408828 -15.5713501 52.80303955 C-19.66670241 52.79282519 -23.76206051 52.78824586 -27.85742188 52.78320312 C-35.89845403 52.772466 -43.93945692 52.75538972 -51.98046875 52.734375 C-51.66669707 54.17346826 -51.35127408 55.61220154 -51.03515625 57.05078125 C-50.85968262 57.85201416 -50.68420898 58.65324707 -50.50341797 59.47875977 C-49.89903254 62.08563044 -49.26595029 64.37765884 -47.98046875 66.734375 C-46.19817939 67.87647317 -46.19817939 67.87647317 -43.98046875 68.734375 C-43.09359375 69.394375 -42.20671875 70.054375 -41.29296875 70.734375 C-32.28264062 76.17457311 -20.85080031 75.62526387 -10.83837891 73.21972656 C-5.280394 71.63977877 0.18662101 69.95631516 5.01953125 66.734375 C6.66953125 66.734375 8.31953125 66.734375 10.01953125 66.734375 C10.01953125 73.994375 10.01953125 81.254375 10.01953125 88.734375 C-7.4450301 97.46665567 -27.70610748 100.04357374 -46.85546875 95.171875 C-58.55686176 91.06134894 -68.32440121 83.80565101 -74.578125 72.96484375 C-79.05684342 63.62873976 -80.35190122 54.76937176 -80.29296875 44.484375 C-80.2880542 43.47165527 -80.28313965 42.45893555 -80.27807617 41.41552734 C-80.03777462 26.02883409 -76.22336538 14.45104724 -65.55859375 3.09765625 C-47.9374816 -13.05502989 -18.99140113 -14.35860376 0 0 Z M-41.98046875 13.734375 C-43.01171875 14.435625 -44.04296875 15.136875 -45.10546875 15.859375 C-48.74079573 19.04506944 -50.78191941 23.08823375 -51.98046875 27.734375 C-51.98046875 30.374375 -51.98046875 33.014375 -51.98046875 35.734375 C-37.79046875 35.734375 -23.60046875 35.734375 -8.98046875 35.734375 C-10.18846538 23.0118575 -10.18846538 23.0118575 -17.98046875 13.734375 C-24.83323027 8.88729978 -35.10662976 8.98815284 -41.98046875 13.734375 Z " fill="#38B038" transform="translate(1176.98046875,494.265625)"/>
<path d="M0 0 C-1.30389778 6.73680522 -3.30929096 12.70002952 -6 19 C-9.19916961 26.51700311 -12.11601316 34.06366484 -14.8203125 41.7734375 C-15.76527829 44.35801282 -16.77440813 46.82290666 -17.9375 49.3125 C-20.33370783 54.47809557 -22.1245763 59.86106247 -23.98217773 65.23754883 C-25.91592357 70.83184714 -25.91592357 70.83184714 -27 73 C-27.66 73 -28.32 73 -29 73 C-29.20625 74.134375 -29.4125 75.26875 -29.625 76.4375 C-30.72763022 81.38743711 -32.2924398 86.14687919 -33.9375 90.9375 C-34.19031738 91.69538818 -34.44313477 92.45327637 -34.70361328 93.23413086 C-36.64479387 98.76319592 -36.64479387 98.76319592 -40 101 C-42.87915039 101.24291992 -42.87915039 101.24291992 -46.34765625 101.23046875 C-47.59224609 101.22853516 -48.83683594 101.22660156 -50.11914062 101.22460938 C-51.42044922 101.21236328 -52.72175781 101.20011719 -54.0625 101.1875 C-55.36767578 101.18685547 -56.67285156 101.18621094 -58.01757812 101.18554688 C-67.71943681 101.14028159 -67.71943681 101.14028159 -70 100 C-70.97270165 98.07868839 -71.85109999 96.10944497 -72.6875 94.125 C-72.94587646 93.51221191 -73.20425293 92.89942383 -73.47045898 92.26806641 C-75.98522679 86.21252352 -78.2269811 80.05873979 -80.46142578 73.89550781 C-82.05785314 69.50466996 -83.7213931 65.17091609 -85.5625 60.875 C-87.58256233 56.1460672 -89.31712203 51.35590951 -91 46.5 C-93.04202451 40.60837395 -95.25262866 34.84669186 -97.7109375 29.11328125 C-99.55546518 24.65846743 -101.21386763 20.13759936 -102.85742188 15.60522461 C-103.98023076 12.54787754 -105.17418683 9.66539925 -106.6796875 6.7734375 C-108 4 -108 4 -108 0 C-98.1 0 -88.2 0 -78 0 C-74.75 10.875 -74.75 10.875 -73.75292969 14.23779297 C-72.34012328 18.92030821 -70.85373832 23.50416274 -68.98828125 28.02734375 C-66.74408074 33.46961165 -65.08721414 39.04139971 -63.4375 44.6875 C-61.23914082 52.40441541 -61.23914082 52.40441541 -58.328125 59.8671875 C-57.04891317 62.88462247 -56.53481929 65.19163838 -56.3125 68.4375 C-56.21388672 69.73494141 -56.21388672 69.73494141 -56.11328125 71.05859375 C-56.05720703 72.01958984 -56.05720703 72.01958984 -56 73 C-55.01 73 -54.02 73 -53 73 C-52.896875 72.175 -52.79375 71.35 -52.6875 70.5 C-52.04048361 67.20609836 -50.99673795 64.30988658 -49.80004883 61.18505859 C-48.52225836 57.69521279 -47.5168719 54.13537006 -46.5 50.5625 C-44.42668957 43.40346283 -42.27297638 36.32328849 -39.60546875 29.359375 C-37.86434306 24.73297062 -36.39475527 20.03460339 -34.9375 15.3125 C-30.74619932 1.74619932 -30.74619932 1.74619932 -29 0 C-25.28443505 -0.38591102 -21.54406563 -0.47093415 -17.8125 -0.625 C-16.77029297 -0.6765625 -15.72808594 -0.728125 -14.65429688 -0.78125 C-9.62401025 -0.99870676 -4.94618067 -1.14471193 0 0 Z " fill="#3AB13A" transform="translate(1093,488)"/>
<path d="M0 0 C10.23 0 20.46 0 31 0 C31 44.22 31 88.44 31 134 C27.59694119 134.8507647 25.16400033 135.12857554 21.71875 135.1328125 C20.20861328 135.13474609 20.20861328 135.13474609 18.66796875 135.13671875 C17.62253906 135.13285156 16.57710937 135.12898437 15.5 135.125 C13.93185547 135.13080078 13.93185547 135.13080078 12.33203125 135.13671875 C11.32527344 135.13542969 10.31851563 135.13414062 9.28125 135.1328125 C8.36408203 135.13168457 7.44691406 135.13055664 6.50195312 135.12939453 C4 135 4 135 0 134 C0 89.78 0 45.56 0 0 Z " fill="#3CB13C" transform="translate(824,454)"/>
<path d="M0 0 C0 8.25 0 16.5 0 25 C-3.96 25.33 -7.92 25.66 -12 26 C-17.724777 28.79082879 -20.89237815 30.83278747 -23.4375 36.6875 C-26.40566042 46.17402245 -27.28643553 55.29110557 -27.16015625 65.1953125 C-27.15495468 66.30937469 -27.14975311 67.42343689 -27.14439392 68.57125854 C-27.12674017 72.08931202 -27.09554702 75.60706024 -27.0625 79.125 C-27.03489492 82.67861336 -27.01023473 86.23218769 -26.99131775 89.78585815 C-26.97903762 91.98830854 -26.96141185 94.1907367 -26.93800354 96.39309692 C-26.93147263 97.37857513 -26.92494171 98.36405334 -26.91821289 99.37939453 C-26.90995987 100.25000519 -26.90170685 101.12061584 -26.89320374 102.01760864 C-27 104 -27 104 -28 105 C-29.97583828 105.09985642 -31.95523478 105.13080794 -33.93359375 105.1328125 C-35.7424707 105.13474609 -35.7424707 105.13474609 -37.58789062 105.13671875 C-38.85826172 105.13285156 -40.12863281 105.12898437 -41.4375 105.125 C-42.70400391 105.12886719 -43.97050781 105.13273438 -45.27539062 105.13671875 C-46.48259766 105.13542969 -47.68980469 105.13414062 -48.93359375 105.1328125 C-50.04790771 105.13168457 -51.16222168 105.13055664 -52.31030273 105.12939453 C-55 105 -55 105 -57 104 C-57.33 71 -57.66 38 -58 4 C-36 3 -36 3 -31 4 C-29.53329887 9.22512279 -28.77422598 13.5814234 -29 19 C-26.5775463 18.06271398 -26.5775463 18.06271398 -25.5625 14.5 C-24.7890625 12.7675 -24.7890625 12.7675 -24 11 C-23.01 10.67 -22.02 10.34 -21 10 C-20.33117671 8.66774716 -19.66465181 7.33433886 -19 6 C-13.89690051 2.17267538 -6.36380177 0 0 0 Z " fill="#36B037" transform="translate(1269,484)"/>
<path d="M0 0 C6.93 0 13.86 0 21 0 C21 0.33 21 0.66 21 1 C15.06 1 9.12 1 3 1 C3 33.34 3 65.68 3 99 C11.25 99 19.5 99 28 99 C28 82.17 28 65.34 28 48 C28.33 48 28.66 48 29 48 C29 65.16 29 82.32 29 100 C19.76 100 10.52 100 1 100 C0.67 67 0.34 34 0 0 Z " fill="#63BE63" transform="translate(1211,488)"/>
<path d="M0 0 C0.66 0 1.32 0 2 0 C2 44.22 2 88.44 2 134 C-1.16334847 134.79083712 -3.44086553 135.1608768 -6.625 135.1875 C-7.40101563 135.20167969 -8.17703125 135.21585938 -8.9765625 135.23046875 C-11 135 -11 135 -13 133 C-8.71 133 -4.42 133 0 133 C0 89.11 0 45.22 0 0 Z " fill="#94D193" transform="translate(853,454)"/>
<path d="M0 0 C0.99 0 1.98 0 3 0 C3 8.91 3 17.82 3 27 C2.34 27.33 1.68 27.66 1 28 C0.01 27.01 -0.98 26.02 -2 25 C-1.34 24.67 -0.68 24.34 0 24 C0 16.08 0 8.16 0 0 Z " fill="#79C778" transform="translate(802,454)"/>
<path d="M0 0 C0.33 0 0.66 0 1 0 C1 13.2 1 26.4 1 40 C-2.16334847 40.79083712 -4.44086553 41.1608768 -7.625 41.1875 C-8.40101563 41.20167969 -9.17703125 41.21585938 -9.9765625 41.23046875 C-12 41 -12 41 -14 39 C-9.71 39 -5.42 39 -1 39 C-1.01160156 37.86046875 -1.02320313 36.7209375 -1.03515625 35.546875 C-1.11623943 23.664388 -0.69990346 11.86086407 0 0 Z " fill="#B0DFAF" transform="translate(854,548)"/>
<path d="M0 0 C0.66 0.33 1.32 0.66 2 1 C-11.92579763 8.61977606 -25.52901039 9.98137566 -40.8671875 5.65625 C-41.57101562 5.4396875 -42.27484375 5.223125 -43 5 C-40.24921116 4.08307039 -38.64051087 3.89113917 -35.8125 3.9375 C-33.9253125 3.9684375 -33.9253125 3.9684375 -32 4 C-32 4.66 -32 5.32 -32 6 C-20.65246502 5.74783256 -10.36718603 5.18359302 0 0 Z " fill="#E7F4E7" transform="translate(427,717)"/>
<path d="M0 0 C5.445 1.485 5.445 1.485 11 3 C11 2.34 11 1.68 11 1 C11.66 1.33 12.32 1.66 13 2 C13 2.99 13 3.98 13 5 C16.79074537 5.88563089 20.28695898 6.11681301 24.17578125 6.09765625 C25.91118164 6.09282227 25.91118164 6.09282227 27.68164062 6.08789062 C28.87982422 6.07951172 30.07800781 6.07113281 31.3125 6.0625 C32.53001953 6.05798828 33.74753906 6.05347656 35.00195312 6.04882812 C38.00135226 6.03706578 41.00065089 6.02062826 44 6 C36.03543015 10.37011624 23.36118018 9.79570964 14.6484375 7.87890625 C9.49014878 6.16708477 4.74112051 3.63119777 0 1 C0 0.67 0 0.34 0 0 Z " fill="#BDE3BD" transform="translate(290,631)"/>
<path d="M0 0 C0.33 1.32 0.66 2.64 1 4 C0.4225 4.391875 -0.155 4.78375 -0.75 5.1875 C-3.11472344 6.95872067 -3.11472344 6.95872067 -5 9.5 C-6.87497706 11.84372132 -8.40975984 13.49598959 -11 15 C-11.99 14.67 -12.98 14.34 -14 14 C-9.38 9.38 -4.76 4.76 0 0 Z " fill="#6CC26C" transform="translate(377,617)"/>
<path d="M0 0 C0.33 0.66 0.66 1.32 1 2 C-1.58336979 7.31026013 -5.46359308 11.74442681 -11 14 C-10.52590352 9.68269587 -7.96603297 7.66352539 -4.9375 4.75 C-4.01839844 3.85796875 -3.09929687 2.9659375 -2.15234375 2.046875 C-1.44207031 1.37140625 -0.73179687 0.6959375 0 0 Z " fill="#67C066" transform="translate(412,582)"/>
<path d="M0 0 C0.66 0.33 1.32 0.66 2 1 C-0.16087353 4.9805565 -2.58492687 8.01181101 -6 11 C-6.99 11 -7.98 11 -9 11 C-7.59155282 7.78475695 -5.89655214 5.67816132 -3.375 3.25 C-2.74335937 2.63640625 -2.11171875 2.0228125 -1.4609375 1.390625 C-0.73777344 0.70226562 -0.73777344 0.70226562 0 0 Z " fill="#65BD66" transform="translate(715,463)"/>
<path d="M0 0 C0.66 0.33 1.32 0.66 2 1 C-2.28565853 6.09057916 -6.19579645 10.66258296 -12 14 C-9.48489058 8.05519592 -5.09632389 3.7858406 0 0 Z " fill="#AFDCAF" transform="translate(286,444)"/>
<path d="M0 0 C5.82438396 0.11648768 10.26423714 1.8429604 15.4375 4.4375 C16.06479004 4.75017822 16.69208008 5.06285645 17.33837891 5.38500977 C21.86510063 7.73020126 21.86510063 7.73020126 23 10 C15.35452104 8.37063563 15.35452104 8.37063563 13.625 6.5625 C11.30812209 4.33473278 8.85932109 3.762584 5.8125 2.8125 C4.72582031 2.46832031 3.63914062 2.12414062 2.51953125 1.76953125 C1.68808594 1.51558594 0.85664062 1.26164062 0 1 C0 0.67 0 0.34 0 0 Z " fill="#BBE2BC" transform="translate(591,435)"/>
<path d="M0 0 C3.63 0 7.26 0 11 0 C11 0.66 11 1.32 11 2 C15.62 2 20.24 2 25 2 C25 2.33 25 2.66 25 3 C21.95809137 3.05421223 18.91716001 3.09377548 15.875 3.125 C15.0190625 3.14175781 14.163125 3.15851562 13.28125 3.17578125 C8.43412707 3.21306681 4.55292095 2.89580643 0 1 C0 0.67 0 0.34 0 0 Z " fill="#94D094" transform="translate(384,721)"/>
<path d="M0 0 C0.66 0.33 1.32 0.66 2 1 C-1.89706407 6.01051095 -5.41366471 9.89648039 -11 13 C-8.52241061 7.42542386 -4.84184017 3.63138013 0 0 Z " fill="#AADAAA" transform="translate(369,359)"/>
<path d="M0 0 C0.33 0.99 0.66 1.98 1 3 C0.01 3.33 -0.98 3.66 -2 4 C-2.1546875 4.8971875 -2.1546875 4.8971875 -2.3125 5.8125 C-3.39002541 9.24098994 -6.02264882 10.22625887 -9 12 C-9.66 11.67 -10.32 11.34 -11 11 C-7.37 7.37 -3.74 3.74 0 0 Z " fill="#71C372" transform="translate(430,564)"/>
<path d="M0 0 C0.66 0.33 1.32 0.66 2 1 C0.92807816 2.3218362 -0.15802695 3.63217927 -1.25 4.9375 C-1.85328125 5.66839844 -2.4565625 6.39929688 -3.078125 7.15234375 C-5.10741134 9.10326334 -6.254407 9.61731779 -9 10 C-8.34 8.68 -7.68 7.36 -7 6 C-6.34 6 -5.68 6 -5 6 C-4.731875 5.38125 -4.46375 4.7625 -4.1875 4.125 C-3 2 -3 2 0 0 Z " fill="#61BD60" transform="translate(1253,488)"/>
<path d="M0 0 C0.8125 1.6875 0.8125 1.6875 1 4 C-1.40123201 7.03685225 -3.06049508 8.72858747 -6.8125 9.8125 C-7.534375 9.874375 -8.25625 9.93625 -9 10 C-8.06409496 8.8944811 -7.12620142 7.79064547 -6.1875 6.6875 C-5.66542969 6.07261719 -5.14335937 5.45773437 -4.60546875 4.82421875 C-3.12827531 3.14575321 -1.59960869 1.56117966 0 0 Z " fill="#75C375" transform="translate(387,607)"/>
<path d="M0 0 C0.66 0.33 1.32 0.66 2 1 C-2.03523352 5.81123996 -6.04467233 10.13242719 -11 14 C-11.66 13.67 -12.32 13.34 -13 13 C-8.71 8.71 -4.42 4.42 0 0 Z " fill="#67BA67" transform="translate(551,443)"/>
<path d="M0 0 C0.99 0.33 1.98 0.66 3 1 C3 2.65 3 4.3 3 6 C3.99 6 4.98 6 6 6 C6.33 9.63 6.66 13.26 7 17 C3.83925236 15.41962618 3.45701825 12.23621052 2.375 9.0625 C2.14554688 8.41603516 1.91609375 7.76957031 1.6796875 7.10351562 C0 2.28941127 0 2.28941127 0 0 Z " fill="#9ED69D" transform="translate(1004,538)"/>
<path d="M0 0 C1.38076179 3.83544942 0.85712183 7.07152497 0 11 C-1.5625 12.9375 -1.5625 12.9375 -3 14 C-4.44133303 11.11733394 -3.49327345 9.49238868 -2.625 6.4375 C-2.34914063 5.44621094 -2.07328125 4.45492187 -1.7890625 3.43359375 C-1 1 -1 1 0 0 Z " fill="#91D090" transform="translate(956,542)"/>
<path d="M0 0 C5.445 1.485 5.445 1.485 11 3 C11 2.34 11 1.68 11 1 C11.66 1.33 12.32 1.66 13 2 C12.67 2.99 12.34 3.98 12 5 C7.25081338 4.53439347 3.89217595 3.83067342 0 1 C0 0.67 0 0.34 0 0 Z " fill="#8ECF8D" transform="translate(290,631)"/>
<path d="M0 0 C2.97 0.495 2.97 0.495 6 1 C5.34 3.97 4.68 6.94 4 10 C3.34 8.68 2.68 7.36 2 6 C2.875 3.75 2.875 3.75 4 2 C2.35 2 0.7 2 -1 2 C-0.67 1.34 -0.34 0.68 0 0 Z " fill="#7DC77C" transform="translate(1087,487)"/>
<path d="M0 0 C1.32 0.33 2.64 0.66 4 1 C0.04 4.465 0.04 4.465 -4 8 C-4 4.09161134 -2.49432124 2.88405893 0 0 Z " fill="#7BC77B" transform="translate(360,634)"/>
<path d="M0 0 C0.53625 0.2475 1.0725 0.495 1.625 0.75 C-3.79038462 4.81153846 -3.79038462 4.81153846 -6.75 4.5 C-7.28625 4.2525 -7.8225 4.005 -8.375 3.75 C-2.95961538 -0.31153846 -2.95961538 -0.31153846 0 0 Z " fill="#61BC60" transform="translate(946.375,564.25)"/>
<path d="M0 0 C0.66 0.33 1.32 0.66 2 1 C0.75537955 4.73386136 -0.91307675 5.64805848 -4 8 C-5.0173873 8.98230498 -6.02596117 9.97469597 -7 11 C-5.5140084 6.40693504 -3.14985318 3.56430755 0 0 Z " fill="#B9E1B9" transform="translate(281,542)"/>
<path d="M0 0 C0.33 1.32 0.66 2.64 1 4 C-0.8125 5.5625 -0.8125 5.5625 -3 7 C-3.99 6.67 -4.98 6.34 -6 6 C-4.02 4.02 -2.04 2.04 0 0 Z " fill="#7EC77E" transform="translate(377,617)"/>
<path d="M0 0 C2.81939117 2.20979308 5.53058944 4.40062046 8 7 C7.67 7.66 7.34 8.32 7 9 C5.2925002 7.71937515 3.62626404 6.38232443 2 5 C2 4.34 2 3.68 2 3 C1.34 3 0.68 3 0 3 C0 2.01 0 1.02 0 0 Z " fill="#69BD68" transform="translate(1177,495)"/>
<path d="M0 0 C3.0916909 2.52956528 3.90931332 5.22454612 5 9 C2 8 2 8 0.8125 6.1875 C0 4 0 4 0 0 Z " fill="#81C881" transform="translate(543,374)"/>
<path d="M0 0 C0.33 0.66 0.66 1.32 1 2 C0.01 2.99 -0.98 3.98 -2 5 C-2 2 -2 2 0 0 Z M-5 6 C-4.34 6.33 -3.68 6.66 -3 7 C-3.99 7.99 -4.98 8.98 -6 10 C-6.66 9.67 -7.32 9.34 -8 9 C-7.01 8.01 -6.02 7.02 -5 6 Z " fill="#2BA52B" transform="translate(285,540)"/>
<path d="M0 0 C-0.33 0.66 -0.66 1.32 -1 2 C-3.64860427 2.59355614 -6.29197322 2.74209269 -9 3 C-6.07868595 -0.19953443 -4.37453972 -1.45817991 0 0 Z " fill="#ACDCAC" transform="translate(387,352)"/>
</svg>
