<?xml version="1.0" encoding="UTF-8"?>
<svg version="1.1" xmlns="http://www.w3.org/2000/svg" width="1069" height="602">
<path d="M0 0 C1.44273624 1.41398606 2.85967322 2.85476281 4.25 4.3203125 C6.12638145 6.33645108 6.12638145 6.33645108 9.15625 7.11328125 C9.51396484 6.25669922 9.51396484 6.25669922 9.87890625 5.3828125 C15.38286525 -4.39639295 28.19923198 -11.79284627 38.53125 -15.26171875 C53.83803399 -19.45932382 67.81351807 -18.47544322 81.859375 -10.9375 C94.73762853 -2.92673803 103.41748876 8.43940061 107.70043945 22.95800781 C111.20497275 39.52898798 108.24169795 56.30217624 99.15079689 70.31098557 C96.06097865 74.65211405 92.47434501 78.32931225 88.68237305 82.05712891 C87.86526352 82.87642883 87.04815399 83.69572876 86.20628357 84.53985596 C83.53635372 87.21207444 80.85251401 89.86981538 78.16796875 92.52734375 C76.29866093 94.39172251 74.43016864 96.25691928 72.56245422 98.12289429 C68.66470258 102.01423344 64.75967306 105.89813563 60.84936523 109.77685547 C55.82872044 114.75699619 50.8197683 119.74872691 45.81454754 124.74436378 C41.04044145 129.50929399 36.26060905 134.26846775 31.48046875 139.02734375 C30.10919106 140.39352781 30.10919106 140.39352781 28.7102108 141.78731155 C26.13724224 144.34875375 23.56082138 146.90666612 20.9831543 149.46337891 C20.21588013 150.22796417 19.44860596 150.99254944 18.65808105 151.78030396 C17.95865891 152.4725708 17.25923676 153.16483765 16.53862 153.87808228 C15.93011043 154.48231836 15.32160086 155.08655445 14.6946516 155.70910072 C12.15386744 158.02820884 9.70043305 158.78860086 6.23828125 158.67578125 C1.88250323 157.49898569 -1.02145482 153.96225557 -4.12255859 150.84033203 C-6.22404297 148.73169367 -8.35688904 146.65652089 -10.48828125 144.578125 C-12.14987383 142.94547092 -13.8100185 141.31134203 -15.46875 139.67578125 C-16.28770752 138.87027832 -17.10666504 138.06477539 -17.95043945 137.23486328 C-18.71187256 136.47415527 -19.47330566 135.71344727 -20.2578125 134.9296875 C-20.9482666 134.24334229 -21.6387207 133.55699707 -22.35009766 132.84985352 C-23.84375 131.11328125 -23.84375 131.11328125 -23.84375 129.11328125 C-24.7409375 128.71109375 -24.7409375 128.71109375 -25.65625 128.30078125 C-27.84222854 127.11410719 -29.25707594 126.01729012 -30.84375 124.11328125 C-30.84375 123.45328125 -30.84375 122.79328125 -30.84375 122.11328125 C-31.441875 121.84515625 -32.04 121.57703125 -32.65625 121.30078125 C-34.84222854 120.11410719 -36.25707594 119.01729012 -37.84375 117.11328125 C-37.84375 116.45328125 -37.84375 115.79328125 -37.84375 115.11328125 C-38.38290039 114.89865234 -38.92205078 114.68402344 -39.47753906 114.46289062 C-42.69444832 112.62807074 -45.11514255 110.12742507 -47.703125 107.51953125 C-48.25236633 106.97220337 -48.80160767 106.42487549 -49.36749268 105.86096191 C-50.52300859 104.70680345 -51.67601685 103.55012958 -52.82666016 102.39111328 C-54.594485 100.61254179 -56.3727713 98.84493362 -58.15234375 97.078125 C-59.27407971 95.95506817 -60.39519551 94.83139149 -61.515625 93.70703125 C-62.04992126 93.17678345 -62.58421753 92.64653564 -63.13470459 92.10021973 C-66.84375 88.34321979 -66.84375 88.34321979 -66.84375 86.11328125 C-67.441875 85.84515625 -68.04 85.57703125 -68.65625 85.30078125 C-70.84222854 84.11410719 -72.25707594 83.01729012 -73.84375 81.11328125 C-73.84375 80.45328125 -73.84375 79.79328125 -73.84375 79.11328125 C-75.32875 78.61828125 -75.32875 78.61828125 -76.84375 78.11328125 C-76.84375 77.45328125 -76.84375 76.79328125 -76.84375 76.11328125 C-77.72546875 75.75943359 -77.72546875 75.75943359 -78.625 75.3984375 C-86.55415863 70.8056678 -91.07991122 58.70895714 -93.43139648 50.21704102 C-95.73735645 38.4524128 -95.2448626 23.86487101 -89.84375 13.11328125 C-89.43125 12.26121094 -89.01875 11.40914062 -88.59375 10.53125 C-81.75914016 -2.1088949 -70.24534738 -11.3856699 -56.59375 -15.76171875 C-34.99445107 -21.2982479 -16.01499776 -15.02740623 0 0 Z " fill="#32AE33" transform="translate(211.84375,156.88671875)"/>
<path d="M0 0 C3.17261409 2.29248648 5.83974368 5.03033827 8.578125 7.81762695 C9.40671021 8.63730453 10.23529541 9.45698212 11.08898926 10.30149841 C13.82447723 13.01567772 16.53753945 15.75110315 19.25 18.48828125 C21.15042515 20.38720356 23.05176643 22.28516988 24.95410156 24.18217468 C28.94231597 28.1640518 32.91807532 32.15804659 36.88671875 36.15942383 C41.4526675 40.76272434 46.0377578 45.3462398 50.63380814 49.91947204 C55.0744339 54.33901091 59.50064969 58.77272567 63.92077637 63.21275902 C65.79163196 65.09153044 67.66784747 66.96442076 69.54699707 68.83495522 C83.9370345 83.18098583 96.23030599 95.76165701 96.46850586 117.15966797 C96.45827393 118.22072754 96.44804199 119.28178711 96.4375 120.375 C96.42920166 121.48117676 96.42090332 122.58735352 96.41235352 123.72705078 C96.11722149 137.94170149 91.50784056 149.24335633 81.75 159.75 C74.31430702 166.67116958 65.66565988 171.08620302 56 174 C55.09894531 174.28810547 55.09894531 174.28810547 54.1796875 174.58203125 C38.8074454 177.52975509 23.94587299 173.38800647 11 165 C6.02990891 161.36369041 1.15690275 157.5640709 -3 153 C-3 152.34 -3 151.68 -3 151 C-6.27198486 152.68556796 -8.67983258 154.60565876 -11.1875 157.25 C-22.03292908 168.35309587 -36.11206541 175.06810257 -51.625 175.375 C-67.03759065 175.36061587 -79.59069788 169.73783873 -90.70703125 159.328125 C-100.49992965 149.38507995 -106.28754943 137.00427607 -106.46850586 122.95800781 C-106.45827393 122.04374023 -106.44804199 121.12947266 -106.4375 120.1875 C-106.42920166 119.22553711 -106.42090332 118.26357422 -106.41235352 117.27246094 C-105.96871779 98.51030093 -96.89542151 87.36029858 -83.8125 74.6875 C-82.32899333 73.23934374 -80.84780997 71.78891357 -79.36930847 70.33564758 C-78.03808783 69.02879178 -76.70051762 67.72841295 -75.36254883 66.4284668 C-72.96296752 64.04078455 -72.96296752 64.04078455 -70.90795898 61.3815918 C-69.21294399 59.26580532 -67.5970696 57.65961181 -65.515625 55.9453125 C-60.20089745 51.39651649 -55.29545387 46.44541292 -50.36230469 41.49267578 C-48.74266462 39.86764019 -47.11770007 38.24806535 -45.4921875 36.62890625 C-44.44759562 35.58365408 -43.40331372 34.53809201 -42.359375 33.4921875 C-41.88014587 33.0149826 -41.40091675 32.53777771 -40.90716553 32.04611206 C-38.75661171 29.88063906 -36.75553392 27.6942232 -34.84863281 25.30908203 C-33 23 -33 23 -30.0625 20.5625 C-26.93786005 17.94800535 -24.59536317 15.12774536 -22 12 C-20.34466005 10.65263027 -18.67987227 9.31665664 -17 8 C-16.34 7.01 -15.68 6.02 -15 5 C-14.34 5 -13.68 5 -13 5 C-12.67 4.01 -12.34 3.02 -12 2 C-8.10317315 -1.20915153 -4.68148208 -1.75439099 0 0 Z " fill="#32AE32" transform="translate(224,339)"/>
<path d="M0 0 C3.19462192 2.95388667 5.90068765 6.11301708 8.625 9.5 C11.32305919 12.34006231 14.12009382 14.93341151 17.125 17.4375 C20.39818775 20.20058057 22.93382312 23.17143912 25.625 26.5 C28.20113613 29.20824568 30.79015435 31.63481988 33.6875 34 C36.43745111 36.34038392 38.4232897 38.65908348 40.625 41.5 C42.27779575 43.1825741 43.94578459 44.84407652 45.625 46.5 C46.97223424 47.840833 48.31885526 49.18228229 49.66503906 50.52416992 C50.42222229 51.27812546 51.17940552 52.03208099 51.95953369 52.80888367 C55.36901203 56.20503002 58.77589102 59.60377871 62.18261719 63.00268555 C63.98381563 64.79882077 65.78590554 66.59406243 67.58886719 68.38842773 C70.19178912 70.97927718 72.79151865 73.5732923 75.390625 76.16796875 C76.20098206 76.97316452 77.01133911 77.77836029 77.84625244 78.60795593 C78.59082703 79.35245499 79.33540161 80.09695404 80.10253906 80.86401367 C80.76030334 81.51955734 81.41806763 82.17510101 82.09576416 82.85050964 C84.05588418 84.96476762 84.58276518 86.27826719 85.125 89.125 C83.87249169 97.57943112 73.34208233 104.86921136 67.5 110.625 C60.8800564 117.03749696 60.8800564 117.03749696 54.75 123.90625 C52.86854454 126.2027324 51.03834341 128.00444543 48.75 129.875 C45.21818086 132.87571852 42.26970072 136.1244446 39.28125 139.65625 C37.7728091 141.3354578 36.26206312 142.7225416 34.5 144.125 C31.43541603 146.65661285 29.158121 149.44726443 26.625 152.5 C24.96966005 153.84736973 23.30487227 155.18334336 21.625 156.5 C20.965 157.49 20.305 158.48 19.625 159.5 C18.965 159.5 18.305 159.5 17.625 159.5 C17.295 160.49 16.965 161.48 16.625 162.5 C14.6875 164.6875 14.6875 164.6875 12.625 166.5 C11.965 166.5 11.305 166.5 10.625 166.5 C10.295 167.49 9.965 168.48 9.625 169.5 C8.965 169.5 8.305 169.5 7.625 169.5 C7.356875 170.098125 7.08875 170.69625 6.8125 171.3125 C5.62582594 173.49847854 4.52900887 174.91332594 2.625 176.5 C1.965 176.5 1.305 176.5 0.625 176.5 C0.295 177.49 -0.035 178.48 -0.375 179.5 C-12.40163999 189.53012268 -27.01772984 192.94851629 -42.28271484 191.74365234 C-55.94141014 190.15305982 -69.15060514 182.98263813 -77.875 172.4375 C-88.16788513 158.74408297 -91.74470954 143.67000145 -89.68920898 126.77124023 C-87.91167107 115.62577492 -81.46791948 103.37419192 -73.375 95.5 C-72.715 95.5 -72.055 95.5 -71.375 95.5 C-69.96122659 92.86095629 -69.00259865 90.42879371 -68.375 87.5 C-69.035 87.5 -69.695 87.5 -70.375 87.5 C-82.57837678 74.19991453 -89.75033322 59.89690072 -89.6875 41.625 C-89.70361328 40.69558594 -89.71972656 39.76617187 -89.73632812 38.80859375 C-89.74625009 24.58050243 -83.91999679 12.93962505 -74.1875 2.6875 C-66.13687461 -4.95507999 -57.22463219 -10.08897062 -46.375 -12.5 C-45.3025 -12.7475 -44.23 -12.995 -43.125 -13.25 C-27.0671325 -14.3205245 -12.38590412 -10.52336215 0 0 Z " fill="#32AE32" transform="translate(123.375,237.5)"/>
<path d="M0 0 C8.31773157 8.86292742 13.40719676 20.32602114 14.32421875 32.4765625 C14.37578125 33.10175781 14.42734375 33.72695313 14.48046875 34.37109375 C15.27638125 52.245962 7.77465529 67.27904905 -3.67578125 80.4765625 C-5.01509192 82.13842967 -6.34998994 83.8038901 -7.67578125 85.4765625 C-6.46921875 86.806875 -6.46921875 86.806875 -5.23828125 88.1640625 C6.61502272 102.06781953 15.02404338 116.79483378 14.5703125 135.53125 C13.19510008 151.9901415 6.80330283 165.63280937 -5.67578125 176.4765625 C-18.2257791 185.78839245 -32.31542206 189.12941961 -47.67578125 187.4765625 C-61.76336629 185.03471443 -71.9358139 177.8521555 -81.80322266 167.8190918 C-82.64202972 166.98247513 -83.48083679 166.14585846 -84.34506226 165.28388977 C-87.08220974 162.54903176 -89.80488335 159.80025347 -92.52734375 157.05078125 C-94.43549725 155.13556629 -96.3465238 153.22322739 -98.25741577 151.31074524 C-102.24291039 147.31883704 -106.22096854 143.31964764 -110.19384766 139.31518555 C-115.29505911 134.17347509 -120.4078572 129.04345147 -125.52456093 123.9171629 C-129.9329627 119.50047176 -134.33688694 115.07932429 -138.73966169 110.65702462 C-139.68319788 109.70944006 -140.62688878 108.76200951 -141.57073259 107.81473136 C-144.66499049 104.70920712 -147.754766 101.59928334 -150.84228516 98.48706055 C-151.6255719 97.7010849 -152.40885864 96.91510925 -153.21588135 96.10531616 C-153.9249765 95.3890657 -154.63407166 94.67281525 -155.36465454 93.93486023 C-155.98363932 93.31160197 -156.60262409 92.68834372 -157.24036598 92.04619884 C-159.14871372 89.95940764 -159.64534145 88.65920132 -160.11328125 85.8515625 C-159.09634676 78.0066393 -151.33264681 71.8196929 -145.92578125 66.4765625 C-145.25417969 65.79722656 -144.58257812 65.11789062 -143.890625 64.41796875 C-143.24738281 63.77730469 -142.60414063 63.13664062 -141.94140625 62.4765625 C-141.36165039 61.8990625 -140.78189453 61.3215625 -140.18457031 60.7265625 C-138.67578125 59.4765625 -138.67578125 59.4765625 -136.67578125 59.4765625 C-136.40765625 58.8784375 -136.13953125 58.2803125 -135.86328125 57.6640625 C-134.67660719 55.47808396 -133.57979012 54.06323656 -131.67578125 52.4765625 C-131.01578125 52.4765625 -130.35578125 52.4765625 -129.67578125 52.4765625 C-129.45066864 51.92776932 -129.22555603 51.37897614 -128.99362183 50.81355286 C-127.28963408 47.79178906 -125.02154461 45.51923909 -122.59033203 43.0847168 C-122.07286911 42.55893036 -121.55540619 42.03314392 -121.02226257 41.49142456 C-119.31064715 39.75573107 -117.59148543 38.02777367 -115.87109375 36.30078125 C-114.66951343 35.09022622 -113.46800702 33.87959782 -112.26657104 32.66889954 C-109.74328775 30.12912488 -107.21564075 27.59378002 -104.68554688 25.06079102 C-101.46846944 21.83835903 -98.26781202 18.60014308 -95.07106209 15.35756207 C-92.59150844 12.8480193 -90.10053196 10.35004767 -87.6064415 7.85495949 C-86.42317237 6.66752389 -85.24396288 5.47602671 -84.06918716 4.28018761 C-59.55275601 -20.64018155 -26.87202877 -25.22680252 0 0 Z " fill="#32AE32" transform="translate(390.67578125,241.5234375)"/>
<path d="M0 0 C0 8.91 0 17.82 0 27 C-3.17625 25.88625 -6.3525 24.7725 -9.625 23.625 C-26.25124209 18.00814757 -43.52801338 14.89727519 -60 23 C-62.4480836 24.55546106 -64.69392923 26.23364792 -67 28 C-67.66 28 -68.32 28 -69 28 C-69.33 28.99 -69.66 29.98 -70 31 C-70.66 31 -71.32 31 -72 31 C-72.268125 31.54140625 -72.53625 32.0828125 -72.8125 32.640625 C-73.67124691 34.34681952 -74.54866641 36.04365892 -75.4375 37.734375 C-75.953125 38.72953125 -76.46875 39.7246875 -77 40.75 C-77.515625 41.73484375 -78.03125 42.7196875 -78.5625 43.734375 C-83.73076912 55.47533419 -84.19396159 71.5293229 -80.375 83.75 C-75.51363357 95.5878537 -69.38753695 103.46971671 -57.70703125 108.8984375 C-40.96837746 115.70983775 -20.90912675 114.70529952 -4.23828125 107.8671875 C-2 107 -2 107 2 107 C2 114.92 2 122.84 2 131 C-22.00028639 140.0001074 -51.58089952 140.88746994 -75.31933594 130.41674805 C-90.71480881 123.08287136 -102.88537631 110.21699106 -108.96875 94.20703125 C-115.42160217 74.13963869 -115.24866703 51.22733818 -106.5234375 31.8203125 C-103.83728997 26.84749579 -100.5093218 22.41630357 -97 18 C-96.3709375 17.16210938 -95.741875 16.32421875 -95.09375 15.4609375 C-72.93792012 -10.58042971 -29.56346001 -11.0862975 0 0 Z " fill="#35AF35" transform="translate(573,244)"/>
<path d="M0 0 C11.51655209 8.81789735 18.88225578 20.09280655 21.68359375 34.40234375 C23.56012566 49.80843904 21.4288107 65.35047721 11.8046875 77.8515625 C2.74871924 88.38373876 -8.2834007 94.58902734 -22 97 C-41.01079578 98.27810178 -57.1851034 96.43666605 -72.25 83.875 C-83.46121657 73.26979514 -87.47872269 60.03734041 -88 45.03515625 C-88.19604158 30.30753254 -83.61458673 18.09247657 -74 7 C-54.87840972 -11.64592884 -22.44381515 -14.94986331 0 0 Z M-52 20 C-58.1167038 27.15538936 -61.75087175 36.31043571 -61.28125 45.83984375 C-59.92139858 56.28425811 -56.89720326 63.65444904 -49.125 70.8125 C-42.42994417 75.49903908 -36.14189086 76.9234413 -28 76 C-20.55873284 74.48721492 -14.7060232 69.95969977 -10.45703125 63.7421875 C-4.91054603 53.62513821 -3.86106217 43.06101901 -7 32 C-10.05686404 23.61139634 -14.43116462 18.94436058 -21.8125 14.1875 C-32.35147982 10.2612134 -43.81557666 11.97605555 -52 20 Z " fill="#35AF35" transform="translate(731,284)"/>
<path d="M0 0 C9.69415102 9.00824411 14.19631136 22.02764778 15.2265625 35.00390625 C15.41215793 40.1246529 15.57152465 45.255454 15.3125 50.375 C14.3125 51.375 14.3125 51.375 11.57273865 51.49525452 C10.34918167 51.49303391 9.12562469 51.49081329 7.86499023 51.48852539 C6.85527664 51.48874443 6.85527664 51.48874443 5.82516479 51.4889679 C3.59044216 51.48826878 1.3558019 51.48047652 -0.87890625 51.47265625 C-2.42447362 51.47079206 -3.97004157 51.46936816 -5.51560974 51.46836853 C-9.59107077 51.4645434 -13.66649637 51.45471317 -17.74194336 51.44366455 C-21.89761882 51.43345032 -26.05329999 51.42887089 -30.20898438 51.42382812 C-38.36850587 51.41309089 -46.52799853 51.39601454 -54.6875 51.375 C-54.07164034 53.1385553 -53.44928916 54.89984452 -52.82421875 56.66015625 C-52.47834717 57.64121338 -52.13247559 58.62227051 -51.77612305 59.63305664 C-49.59083179 65.13720691 -46.64418363 68.13521848 -41.25 70.6875 C-27.29502161 76.60401141 -12.21513794 72.1891594 1.3125 67.375 C3.2925 66.715 5.2725 66.055 7.3125 65.375 C7.3125 72.965 7.3125 80.555 7.3125 88.375 C-4.54502876 92.79251072 -14.82996342 95.7645924 -27.5625 95.6875 C-28.52704102 95.68258545 -29.49158203 95.6776709 -30.48535156 95.67260742 C-45.46155378 95.42653737 -57.49141586 91.1474561 -68.4296875 80.7578125 C-80.04982954 68.49434079 -82.19059601 54.0569295 -81.96484375 37.83203125 C-81.46572469 23.54133369 -76.34568725 11.03764769 -65.8828125 1.19140625 C-47.25075258 -14.22479991 -19.27415974 -14.79675537 0 0 Z M-49.6875 17.375 C-53.12829824 23.10601108 -53.83425981 27.54907848 -54.6875 34.375 C-40.1675 34.375 -25.6475 34.375 -10.6875 34.375 C-10.6875 25.69900723 -11.69469625 21.19913812 -16.9375 14.5 C-22.31734096 10.34285017 -27.74027567 8.82178065 -34.5234375 9.08984375 C-40.42419837 9.86738083 -45.81653056 12.8663275 -49.6875 17.375 Z " fill="#35AF35" transform="translate(947.6875,285.625)"/>
<path d="M0 0 C4.43715855 -0.14483042 8.87371277 -0.23391752 13.3125 -0.3125 C14.57513672 -0.35439453 15.83777344 -0.39628906 17.13867188 -0.43945312 C18.34716797 -0.45556641 19.55566406 -0.47167969 20.80078125 -0.48828125 C21.91622314 -0.51446533 23.03166504 -0.54064941 24.1809082 -0.56762695 C27 0 27 0 28.53067017 2.11659241 C30.13325801 5.26150504 31.24783103 8.34129288 32.32836914 11.70214844 C32.54017319 12.35476151 32.75197723 13.00737457 32.97019958 13.67976379 C33.4263187 15.08769864 33.87961989 16.49654893 34.33036995 17.90621185 C35.04342203 20.13521385 35.76445722 22.36149008 36.48765564 24.58721924 C38.28047946 30.10996179 40.06088386 35.6366858 41.83917236 41.16412354 C43.34569721 45.84617459 44.85807165 50.5262464 46.37905693 55.20362091 C47.09071681 57.40045356 47.79348073 59.60000871 48.49610901 61.79974365 C48.9306184 63.13845594 49.36556635 64.477026 49.80102539 65.81542969 C50.36703209 67.57484894 50.36703209 67.57484894 50.94447327 69.36981201 C51.71632019 72.13462604 51.71632019 72.13462604 54 73 C54.18048889 72.39083237 54.36097778 71.78166473 54.54693604 71.15403748 C56.32867144 65.17319848 58.18539306 59.22163892 60.109375 53.28515625 C60.39927307 52.38993759 60.68917114 51.49471893 60.987854 50.57237244 C61.59900287 48.68727988 62.21080761 46.80239985 62.82324219 44.91772461 C63.73722202 42.10186737 64.64600111 39.28436599 65.5546875 36.46679688 C68.51882729 27.31687462 71.5774374 18.21372255 74.890625 9.18359375 C75.18805603 8.37092545 75.48548706 7.55825714 75.79193115 6.72096252 C77.87188141 1.12811859 77.87188141 1.12811859 79 0 C81.07262076 -0.08767112 83.14820294 -0.10695873 85.22265625 -0.09765625 C86.48271484 -0.09443359 87.74277344 -0.09121094 89.04101562 -0.08789062 C90.38151109 -0.07953403 91.72200588 -0.07106907 93.0625 -0.0625 C94.40689942 -0.0574866 95.7513006 -0.05292342 97.09570312 -0.04882812 C100.39717941 -0.03699488 103.69856803 -0.02050971 107 0 C105.1023943 6.65126192 102.91529783 13.0989702 100.3671875 19.52734375 C100.0176149 20.41868011 99.6680423 21.31001648 99.30787659 22.22836304 C98.16753076 25.13297819 97.02143136 28.03528198 95.875 30.9375 C95.0779215 32.96302268 94.28113206 34.98865914 93.48461914 37.0144043 C91.83189011 41.21533065 90.17648778 45.41518988 88.51904297 49.61425781 C86.43406123 54.89712687 84.3553373 60.1824292 82.27893066 65.46867371 C80.70950068 69.46305314 79.13753081 73.45642904 77.5647583 77.44949341 C76.8138436 79.35666388 76.06363892 81.26411406 75.31414795 83.17184448 C74.27320903 85.82001562 73.2288956 88.46682981 72.18359375 91.11328125 C71.87402237 91.90270111 71.56445099 92.69212097 71.24549866 93.50546265 C69.11436633 98.88563367 69.11436633 98.88563367 68 100 C65.70848583 100.08790975 63.41427476 100.10694038 61.12109375 100.09765625 C60.09110008 100.09553383 60.09110008 100.09553383 59.04029846 100.09336853 C56.83932199 100.08775479 54.63844591 100.07520007 52.4375 100.0625 C50.94856917 100.05748676 49.45963676 100.05292355 47.97070312 100.04882812 C44.31376925 100.03778093 40.65689442 100.02050713 37 100 C36.6095752 98.96858887 36.21915039 97.93717773 35.81689453 96.87451172 C26.96592041 73.50654311 17.98975246 50.19129735 8.85400391 26.93310547 C8.48496445 25.99329834 8.11592499 25.05349121 7.73570251 24.08520508 C7.04966937 22.33884264 6.36300594 20.5927276 5.67555237 18.84692383 C5.06666925 17.29791614 4.46035031 15.74789722 3.85702515 14.19671631 C3.28167286 12.72198041 2.69790153 11.25050371 2.10610962 9.7822876 C0.71671989 6.26000977 0 3.83941848 0 0 Z " fill="#34AE34" transform="translate(755,278)"/>
<path d="M0 0 C9.24 0 18.48 0 28 0 C28 47.52 28 95.04 28 144 C18.76 144 9.52 144 0 144 C0 96.48 0 48.96 0 0 Z " fill="#32AD32" transform="translate(595,234)"/>
<path d="M0 0 C0 8.25 0 16.5 0 25 C-1.65 24.67 -3.3 24.34 -5 24 C-12.39104364 23.37813288 -18.9514033 23.28772117 -25 28 C-31.76925938 34.36168617 -33.06391129 44.55562581 -33.43237305 53.41113281 C-33.47310047 55.67491836 -33.49904042 57.93900862 -33.51171875 60.203125 C-33.52966995 61.4069281 -33.54762115 62.6107312 -33.56611633 63.85101318 C-33.6197786 67.65064108 -33.6539733 71.4501466 -33.6875 75.25 C-33.72071196 77.84506896 -33.75520513 80.44012185 -33.79101562 83.03515625 C-33.87786227 89.35678417 -33.93831038 95.67787777 -34 102 C-43.24 102 -52.48 102 -62 102 C-62.33 69 -62.66 36 -63 2 C-54.75 2 -46.5 2 -38 2 C-35 14 -35 14 -35 17 C-34.34 17 -33.68 17 -33 17 C-32.814375 16.154375 -32.62875 15.30875 -32.4375 14.4375 C-29.65526088 7.7843195 -24.39811294 3.61223292 -17.89453125 0.71484375 C-11.43944986 -1.7207849 -7.28855589 -0.72885559 0 0 Z " fill="#32AD33" transform="translate(1044,276)"/>
<path d="M0 0 C0.495 0.99 0.495 0.99 1 2 C-6.06127161 11.03842766 -13.99612885 19.12365 -22.125 27.1875 C-23.20726709 28.26473707 -24.28929986 29.34220961 -25.37109375 30.41992188 C-27.35940254 32.40014254 -29.34929366 34.37872012 -31.34033203 36.35620117 C-33.89857671 38.89918186 -36.45039574 41.44835696 -39 44 C-40.44371713 45.44381542 -41.88748971 46.88757539 -43.33129883 48.33129883 C-44.151772 49.151772 -44.97224518 49.97224518 -45.81758118 50.81758118 C-57.21172078 62.21172078 -68.60586039 73.60586039 -80 85 C-80.99 84.67 -81.98 84.34 -83 84 C-82.35450195 83.35973877 -81.70900391 82.71947754 -81.04394531 82.05981445 C-78.63401845 79.66700232 -76.22641447 77.27190005 -73.8203125 74.87524414 C-72.78151098 73.84144929 -71.7418109 72.80855649 -70.70117188 71.77661133 C-69.19940781 70.28707427 -67.70098141 68.79424654 -66.203125 67.30078125 C-65.30239258 66.40528564 -64.40166016 65.50979004 -63.47363281 64.5871582 C-60.9830421 62.05929928 -60.9830421 62.05929928 -58.89257812 59.35961914 C-57.20391973 57.25424203 -55.58831688 55.65240298 -53.515625 53.9453125 C-48.20089745 49.39651649 -43.29545387 44.44541292 -38.36230469 39.49267578 C-36.74266462 37.86764019 -35.11770007 36.24806535 -33.4921875 34.62890625 C-32.44759562 33.58365408 -31.40331372 32.53809201 -30.359375 31.4921875 C-29.88014587 31.0149826 -29.40091675 30.53777771 -28.90716553 30.04611206 C-26.75661171 27.88063906 -24.75553392 25.6942232 -22.84863281 23.30908203 C-21 21 -21 21 -18.0625 18.5625 C-14.93786005 15.94800535 -12.59536317 13.12774536 -10 10 C-8.34466005 8.65263027 -6.67987227 7.31665664 -5 6 C-4.34 5.01 -3.68 4.02 -3 3 C-2.34 3 -1.68 3 -1 3 C-0.67 2.01 -0.34 1.02 0 0 Z " fill="#3EAC3E" transform="translate(212,341)"/>
<path d="M0 0 C0.33 0.66 0.66 1.32 1 2 C-6.31472832 11.36285225 -14.5560706 19.67034934 -23 28 C-23.66 27.34 -24.32 26.68 -25 26 C-22.87192735 23.13528681 -20.81886398 20.84969565 -18.0625 18.5625 C-14.93786005 15.94800535 -12.59536317 13.12774536 -10 10 C-8.34466005 8.65263027 -6.67987227 7.31665664 -5 6 C-4.34 5.01 -3.68 4.02 -3 3 C-2.34 3 -1.68 3 -1 3 C-0.67 2.01 -0.34 1.02 0 0 Z " fill="#53B654" transform="translate(212,341)"/>
<path d="M0 0 C0.8125 1.6875 0.8125 1.6875 1 4 C-1.1875 6.5 -1.1875 6.5 -4 9 C-4.66 9.70125 -5.32 10.4025 -6 11.125 C-9.13912323 14.06792803 -11.62818547 16 -16 16 C-14.71034824 14.62437146 -13.37310707 13.29233607 -12 12 C-11.34 12 -10.68 12 -10 12 C-9.731875 11.401875 -9.46375 10.80375 -9.1875 10.1875 C-8.00082594 8.00152146 -6.90400887 6.58667406 -5 5 C-4.34 5 -3.68 5 -3 5 C-2.690625 4.360625 -2.38125 3.72125 -2.0625 3.0625 C-1 1 -1 1 0 0 Z " fill="#5DBA60" transform="translate(264,289)"/>
<path d="M0 0 C0.66 0.99 1.32 1.98 2 3 C-1.63 6.63 -5.26 10.26 -9 14 C-9.99 13.34 -10.98 12.68 -12 12 C-8.04 8.04 -4.08 4.08 0 0 Z " fill="#5ABC5A" transform="translate(247,306)"/>
<path d="M0 0 C0.33 0 0.66 0 1 0 C1 8.91 1 17.82 1 27 C-0.32 26.67 -1.64 26.34 -3 26 C-3 25.34 -3 24.68 -3 24 C-2.34 24 -1.68 24 -1 24 C-0.67 16.08 -0.34 8.16 0 0 Z " fill="#3EAC3B" transform="translate(572,244)"/>
<path d="M0 0 C0.66 0.33 1.32 0.66 2 1 C-0.64 3.97 -3.28 6.94 -6 10 C-7.32 9.67 -8.64 9.34 -10 9 C-6.7 6.03 -3.4 3.06 0 0 Z " fill="#59B959" transform="translate(233,151)"/>
<path d="M0 0 C0.66 0.33 1.32 0.66 2 1 C0.78258021 2.46815389 -0.44948761 3.92416847 -1.6875 5.375 C-2.37199219 6.18710938 -3.05648438 6.99921875 -3.76171875 7.8359375 C-6.09861313 10.09534323 -7.9302743 11.02155853 -11 12 C-7.49102731 7.81576108 -3.91939465 3.80411834 0 0 Z " fill="#63BA62" transform="translate(318,235)"/>
<path d="M0 0 C0.66 0.33 1.32 0.66 2 1 C0.92807816 2.3218362 -0.15802695 3.63217927 -1.25 4.9375 C-1.85328125 5.66839844 -2.4565625 6.39929688 -3.078125 7.15234375 C-5.10741134 9.10326334 -6.254407 9.61731779 -9 10 C-8.06409496 8.8944811 -7.12620142 7.79064547 -6.1875 6.6875 C-5.66542969 6.07261719 -5.14335938 5.45773438 -4.60546875 4.82421875 C-3.12827531 3.14575321 -1.59960869 1.56117966 0 0 Z " fill="#48B148" transform="translate(55,235)"/>
<path d="M0 0 C0.33 0.99 0.66 1.98 1 3 C0.67 3.66 0.34 4.32 0 5 C-0.04254356 6.99954746 -0.04080783 9.00041636 0 11 C0 11.99 0 12.98 0 14 C-1.5 12.875 -1.5 12.875 -3 11 C-3.60643498 6.35066514 -2.67716504 3.79265048 0 0 Z " fill="#5DB95C" transform="translate(234,319)"/>
<path d="M0 0 C4.2742558 1.5830577 6.26531794 4.50568404 9 8 C6 8 6 8 4.3125 6.625 C3 5 3 5 3 3 C2.01 2.67 1.02 2.34 0 2 C0 1.34 0 0.68 0 0 Z " fill="#57B756" transform="translate(295,412)"/>
<path d="M0 0 C1.32 0.33 2.64 0.66 4 1 C4 1.66 4 2.32 4 3 C5.32 3.66 6.64 4.32 8 5 C8 5.99 8 6.98 8 8 C6.85073734 7.04578192 5.70569459 6.08647955 4.5625 5.125 C3.92441406 4.59132813 3.28632813 4.05765625 2.62890625 3.5078125 C1 2 1 2 0 0 Z " fill="#66BC65" transform="translate(200,299)"/>
<path d="M0 0 C0.66 0.33 1.32 0.66 2 1 C1.04956626 2.33897583 0.08940853 3.67105427 -0.875 5 C-1.40867187 5.7425 -1.94234375 6.485 -2.4921875 7.25 C-3.23855469 8.11625 -3.23855469 8.11625 -4 9 C-4.66 9 -5.32 9 -6 9 C-4.47291037 5.56404834 -2.40072955 2.88087546 0 0 Z " fill="#49AF49" transform="translate(480,257)"/>
<path d="M0 0 C0.33 0 0.66 0 1 0 C1 1.65 1 3.3 1 5 C0.01 5.33 -0.98 5.66 -2 6 C-2 6.66 -2 7.32 -2 8 C-2.66 8 -3.32 8 -4 8 C-2.87548273 5.0280615 -1.77706209 2.66559313 0 0 Z " fill="#4BB44B" transform="translate(472,267)"/>
<path d="M0 0 C-0.66 2.31 -1.32 4.62 -2 7 C-2.66 7 -3.32 7 -4 7 C-4 5.02 -4 3.04 -4 1 C-2 0 -2 0 0 0 Z " fill="#42AF42" transform="translate(861,281)"/>
<path d="M0 0 C0 3 0 3 -2.5 5.6875 C-3.325 6.450625 -4.15 7.21375 -5 8 C-5.66 7.67 -6.32 7.34 -7 7 C-4.69 4.69 -2.38 2.38 0 0 Z " fill="#69BB68" transform="translate(299,254)"/>
</svg>
